<?xml version="1.0" standalone="no"?>
<!DOCTYPE svg PUBLIC "-//W3C//DTD SVG 20010904//EN"
 "http://www.w3.org/TR/2001/REC-SVG-20010904/DTD/svg10.dtd">
<svg version="1.0" xmlns="http://www.w3.org/2000/svg"
 width="512.000000pt" height="512.000000pt" viewBox="0 0 512.000000 512.000000"
 preserveAspectRatio="xMidYMid meet">
<metadata>
Created by potrace 1.14, written by Peter Selinger 2001-2017
</metadata>
<g transform="translate(0.000000,512.000000) scale(0.100000,-0.100000)"
fill="#000000" stroke="none">
<path d="M2459 4076 c-2 -2 -51 -7 -109 -10 -58 -4 -130 -9 -160 -11 -30 -2
-100 -7 -155 -10 -55 -3 -122 -8 -150 -10 -27 -2 -95 -7 -150 -10 -246 -15
-408 -63 -574 -170 -172 -110 -279 -237 -398 -472 -43 -84 -81 -153 -84 -153
-3 0 -11 11 -17 25 -10 22 -7 35 25 99 44 90 41 109 -32 185 l-54 56 -190 3
c-123 2 -197 -1 -210 -8 -11 -6 -44 -57 -72 -114 -62 -124 -61 -135 16 -215
l54 -56 156 -3 155 -3 19 -38 20 -37 -101 -50 -100 -49 -91 -135 -92 -135 0
-560 c0 -607 -1 -590 54 -654 18 -20 21 -39 22 -118 1 -51 2 -96 3 -100 16
-76 65 -141 129 -176 39 -20 57 -22 256 -25 176 -3 222 -1 255 12 53 20 108
74 135 132 12 24 25 43 29 40 7 -4 53 -9 187 -21 56 -5 68 -2 199 54 l139 59
25 -50 c15 -30 34 -53 49 -59 14 -5 391 -9 914 -9 990 0 930 -4 964 69 10 23
24 41 30 41 7 0 71 -25 141 -55 140 -61 112 -57 314 -39 l75 6 13 -36 c15 -42
66 -97 114 -123 29 -16 60 -18 268 -18 215 0 238 2 265 19 101 66 127 116 133
261 5 106 6 111 41 164 l36 54 0 566 0 566 -84 125 c-46 69 -92 132 -101 140
-10 8 -58 35 -108 59 l-91 44 20 39 19 38 151 0 150 0 65 63 c46 46 64 70 64
89 0 14 -23 72 -51 128 -37 73 -57 104 -75 111 -14 5 -107 9 -206 9 l-181 0
-64 -65 c-40 -41 -63 -73 -63 -88 0 -12 16 -55 35 -95 29 -62 33 -76 23 -97
-6 -14 -14 -25 -17 -25 -4 0 -36 60 -72 133 -126 251 -241 386 -434 508 -93
59 -257 121 -355 134 -19 3 -44 7 -55 9 -11 2 -65 7 -120 10 -55 4 -129 9
-165 12 -36 2 -99 7 -140 9 -75 4 -209 13 -305 21 -76 6 -332 13 -336 10z"/>
</g>
</svg>
